<?xml version="1.0"?>
<svg version="1.1" xmlns="http://www.w3.org/2000/svg" width="400" height="50" style=""><path fill="#e94949" d="M16.04248046875,18.65966796875q0-0.2734375,0.196533203125-0.452880859375t0.46142578125-0.281982421875t0.5810546875-0.13671875t0.555419921875-0.0341796875q0.49560546875,0,1.051025390625,0.13671875t0.828857421875,0.59814453125q0.49560546875,0.83740234375,0.726318359375,1.990966796875t0.435791015625,2.213134765625q0.3076171875,1.4697265625,0.7861328125,3.076171875t0.999755859375,3.272705078125t1.068115234375,3.272705078125t0.95703125,3.0078125q0.49560546875-2.06787109375,0.914306640625-4.23828125t0.80322265625-4.3408203125t0.80322265625-4.3408203125t0.914306640625-4.25537109375q0.1025390625-0.49560546875,0.15380859375-1.24755859375t0.213623046875-1.45263671875t0.469970703125-1.204833984375t0.93994140625-0.504150390625q0.66650390625,0,0.897216796875,0.367431640625t0.230712890625,1.068115234375q-0.1708984375,1.93115234375-0.555419921875,3.828125t-0.709228515625,3.7939453125q-0.46142578125,2.34130859375-0.999755859375,4.691162109375t-1.00830078125,4.708251953125t-0.80322265625,4.725341796875t-0.401611328125,4.742431640625q0.0341796875,0.1025390625,0.1025390625,0.2392578125t0.068359375,0.205078125q0,0.205078125-0.18798828125,0.384521484375t-0.469970703125,0.3076171875t-0.615234375,0.196533203125t-0.623779296875,0.068359375q-0.2734375,0-0.623779296875-0.0341796875t-0.70068359375-0.128173828125t-0.615234375-0.247802734375t-0.333251953125-0.39306640625q-0.2734375-0.80322265625-0.504150390625-1.563720703125t-0.435791015625-1.563720703125q-0.97412109375-3.50341796875-2.042236328125-6.878662109375t-1.973876953125-6.861572265625q-0.42724609375-1.572265625-0.640869140625-3.084716796875t-0.692138671875-2.982177734375q0.068359375,0.13671875,0.068359375,0.22216796875q-0.068359375-0.2392578125-0.13671875-0.452880859375t-0.15380859375-0.469970703125q0,0.068359375,0.01708984375,0.08544921875t0.01708984375,0.05126953125q0-0.0341796875-0.01708984375-0.05126953125t-0.01708984375-0.05126953125z M34.528051757812,42.2607421875q0.068359375-3.57177734375,0.299072265625-7.12646484375t0.401611328125-7.12646484375q0.0341796875-1.3671875,0.0341796875-2.486572265625t0.111083984375-1.939697265625t0.41015625-1.256103515625t0.999755859375-0.435791015625q0.59814453125,0,0.90576171875,0.1708984375t0.469970703125,0.435791015625t0.196533203125,0.59814453125t0.0341796875,0.675048828125q0,0.49560546875,0.0341796875,0.982666015625t0.0341796875,0.982666015625q0,3.60595703125-0.196533203125,7.19482421875t-0.196533203125,7.22900390625q0,0.52978515625,0.01708984375,1.068115234375t0.01708984375,1.102294921875q0,0.205078125-0.18798828125,0.341796875t-0.469970703125,0.230712890625t-0.59814453125,0.128173828125t-0.521240234375,0.0341796875q-0.2392578125,0-0.538330078125-0.0341796875t-0.5810546875-0.145263671875t-0.478515625-0.264892578125t-0.196533203125-0.35888671875z M35.485083007812,19.0869140625q0-0.1708984375,0.05126953125-0.384521484375t0.11962890625-0.384521484375q0.0341796875-0.205078125,0.1025390625-0.70068359375t0.247802734375-0.965576171875t0.49560546875-0.83740234375t0.897216796875-0.367431640625l0.32470703125,0q0.2734375,0.068359375,0.555419921875,0.1708984375t0.281982421875,0.49560546875q0,0.1708984375-0.01708984375,0.32470703125t-0.05126953125,0.341796875q-0.13671875,1.00830078125-0.264892578125,1.58935546875t-0.299072265625,0.880126953125t-0.435791015625,0.384521484375t-0.675048828125,0.11962890625q-0.13671875,0-0.367431640625-0.01708984375t-0.4443359375-0.08544921875t-0.367431640625-0.213623046875t-0.15380859375-0.350341796875z M42.059033203125,20.830078125q0-0.80322265625,0.042724609375-1.58935546875t0.145263671875-1.55517578125q0.068359375-0.39306640625,0.606689453125-0.56396484375t0.897216796875-0.1708984375l0.41015625,0.0341796875q0.49560546875,0.068359375,0.999755859375-0.068359375t0.999755859375-0.13671875q1.162109375,0,2.59765625,0.25634765625t2.691650390625,0.87158203125t2.110595703125,1.614990234375t0.8544921875,2.469482421875t-0.888671875,2.742919921875t-2.23876953125,2.23876953125t-2.9052734375,1.512451171875t-2.85400390625,0.546875q0.13671875,3.29833984375,0.384521484375,6.54541015625t0.845947265625,6.494140625l0.0341796875,0.22216796875q0,0.2392578125-0.213623046875,0.39306640625t-0.504150390625,0.247802734375t-0.589599609375,0.128173828125t-0.487060546875,0.0341796875q-0.42724609375,0-1.033935546875-0.162353515625t-0.743408203125-0.640869140625q-0.39306640625-1.50390625-0.615234375-3.306884765625t-0.32470703125-3.768310546875t-0.145263671875-3.956298828125t-0.042724609375-3.887939453125l0-3.84521484375q0-0.63232421875-0.01708984375-1.31591796875t-0.01708984375-1.38427734375z M45.289013671875,18.0615234375q0,2.34130859375,0.05126953125,4.674072265625t0.11962890625,4.674072265625q1.00830078125-0.205078125,2.059326171875-0.726318359375t1.89697265625-1.239013671875t1.3671875-1.632080078125t0.521240234375-1.922607421875q0-0.90576171875-0.452880859375-1.62353515625t-1.170654296875-1.23046875q-0.70068359375-0.49560546875-1.58935546875-0.76904296875q-0.7861328125-0.2392578125-1.5380859375-0.2392578125l-0.18798828125,0z M64.57216796875,16.64306640625q0-0.341796875,0.52978515625-0.487060546875t0.87158203125-0.145263671875q0.39306640625,0,0.863037109375,0.1025390625t0.572509765625,0.52978515625q0.49560546875,1.99951171875,0.760498046875,4.075927734375t0.401611328125,4.178466796875t0.22216796875,4.178466796875t0.18798828125,4.110107421875q0.46142578125-2.03369140625,0.948486328125-4.041748046875t1.273193359375-4.007568359375l0-1.3671875q0-0.87158203125,0.606689453125-1.256103515625t1.632080078125-0.384521484375q0.1025390625,0,0.469970703125,0.05126953125t0.367431640625,0.341796875q-0.068359375,0.205078125-0.162353515625,0.39306640625t-0.093994140625,0.41015625q0,2.59765625,0.615234375,5.323486328125t1.21337890625,5.306396484375q0.341796875-2.20458984375,0.7861328125-4.39208984375t0.9228515625-4.35791015625q0.63232421875-2.9052734375,0.965576171875-4.827880859375t0.63232421875-3.0419921875t0.6494140625-1.58935546875t0.982666015625-0.469970703125q0.39306640625-0.0341796875,0.73486328125,0.13671875t0.2734375,0.56396484375q-1.23046875,5.947265625-2.298583984375,11.9287109375t-2.178955078125,11.962890625q0,0.341796875,0.11962890625,0.80322265625t0.11962890625,0.8203125q0,0.205078125-0.18798828125,0.341796875t-0.452880859375,0.230712890625t-0.5810546875,0.128173828125t-0.555419921875,0.0341796875q-0.52978515625,0-1.11083984375-0.162353515625t-0.751953125-0.931396484375q-0.59814453125-2.666015625-1.102294921875-5.357666015625t-0.931396484375-5.426025390625q-0.13671875,0.63232421875-0.25634765625,1.28173828125t-0.22216796875,1.31591796875q-0.49560546875,2.9052734375-1.09375,5.810546875t-0.59814453125,5.87890625q0,0.73486328125-0.3076171875,0.948486328125t-1.04248046875,0.213623046875q-0.56396484375,0-0.95703125-0.18798828125q-0.3076171875-0.1708984375-0.5810546875-0.3076171875q-0.2392578125-0.13671875-0.435791015625-0.316162109375t-0.196533203125-0.350341796875q-0.2734375-3.70849609375-0.384521484375-7.36572265625t-0.247802734375-7.36572265625q-0.13671875-3.33251953125-0.401611328125-6.656494140625t-0.589599609375-6.605224609375z M85.330688476562,36.826171875q0-1.1962890625,0.264892578125-2.81982421875t0.897216796875-3.076171875t1.666259765625-2.469482421875t2.606201171875-1.016845703125q1.4697265625,0,2.20458984375,0.845947265625t0.73486328125,2.281494140625q0,0.93994140625-0.350341796875,2.059326171875t-0.999755859375,2.119140625t-1.5380859375,1.666259765625t-1.982421875,0.66650390625l-0.4443359375-0.0341796875q0,0.46142578125,0.13671875,1.239013671875t0.401611328125,1.546630859375t0.68359375,1.35009765625t1.016845703125,0.5810546875q0.87158203125,0,1.6748046875-0.70068359375t1.52099609375-1.55517578125t1.3330078125-1.55517578125t1.1279296875-0.70068359375q0.2734375,0,0.56396484375,0.08544921875t0.32470703125,0.478515625q0,0.2392578125-0.128173828125,0.39306640625t-0.230712890625,0.341796875q-0.52978515625,0.90576171875-1.153564453125,1.72607421875t-1.409912109375,1.48681640625t-1.717529296875,1.051025390625t-2.059326171875,0.384521484375q-1.4697265625,0-2.44384765625-0.521240234375t-1.572265625-1.4013671875t-0.863037109375-2.03369140625t-0.264892578125-2.418212890625z M88.389770507812,35.52734375l0.478515625,0.42724609375q0.341796875,0.3076171875,0.68359375,0.13671875t0.615234375-0.623779296875t0.504150390625-1.119384765625t0.41015625-1.3671875t0.264892578125-1.3671875t0.08544921875-1.11083984375l0-0.5810546875t-0.05126953125-0.615234375t-0.179443359375-0.487060546875t-0.401611328125-0.247802734375q-0.08544921875-0.01708984375-0.15380859375-0.01708984375q-0.5810546875,0-0.9912109375,0.73486328125q-0.4443359375,0.8203125-0.7177734375,1.990966796875t-0.39306640625,2.401123046875t-0.15380859375,1.845703125z M99.612158203125,31.15234375q0-1.1962890625,0.111083984375-3.1103515625t0.264892578125-3.94775390625t0.384521484375-3.853759765625t0.504150390625-2.794189453125q0.1025390625-0.42724609375,0.487060546875-0.5126953125t0.777587890625-0.08544921875q0.52978515625,0,0.914306640625,0.18798828125t0.384521484375,0.8203125q0,3.1103515625-0.384521484375,6.229248046875t-0.418701171875,6.229248046875q0.52978515625-0.80322265625,1.3671875-1.204833984375t1.77734375-0.401611328125q1.298828125,0,2.23876953125,0.52978515625t1.52099609375,1.3671875t0.863037109375,1.939697265625t0.281982421875,2.247314453125q0,0.63232421875-0.128173828125,1.580810546875t-0.384521484375,1.99951171875t-0.6494140625,2.0849609375t-0.931396484375,1.854248046875t-1.239013671875,1.324462890625t-1.5380859375,0.504150390625q-0.1708984375,0-0.452880859375-0.05126953125t-0.56396484375-0.15380859375t-0.469970703125-0.264892578125t-0.18798828125-0.401611328125q0-0.2734375,0.333251953125-0.384521484375t0.538330078125-0.111083984375q0.76904296875-0.341796875,1.3671875-1.427001953125t0.999755859375-2.384033203125t0.606689453125-2.572021484375t0.205078125-2.076416015625q0-0.46142578125-0.13671875-1.23046875t-0.418701171875-1.52099609375t-0.76904296875-1.298828125t-1.153564453125-0.546875q-0.80322265625,0-1.28173828125,0.828857421875t-0.751953125,1.93115234375t-0.367431640625,2.27294921875t-0.093994140625,1.837158203125q0,0.42724609375,0.145263671875,0.845947265625t0.333251953125,0.83740234375t0.333251953125,0.8544921875t0.145263671875,0.863037109375q0,0.205078125-0.179443359375,0.341796875t-0.418701171875,0.22216796875t-0.504150390625,0.111083984375t-0.401611328125,0.025634765625q-0.97412109375,0-1.35009765625-0.46142578125t-0.6494140625-1.298828125q-0.59814453125-1.89697265625-0.828857421875-3.853759765625t-0.230712890625-3.922119140625z M114.18415527344,31.71630859375q0-0.70068359375,0.41015625-1.204833984375t0.999755859375-0.8203125t1.290283203125-0.469970703125t1.298828125-0.15380859375q0.46142578125,0,1.23046875,0.13671875t1.50390625,0.41015625t1.273193359375,0.7177734375t0.538330078125,1.04248046875q0,0.2734375-0.205078125,0.487060546875t-0.42724609375,0.213623046875q-0.46142578125,0-0.83740234375-0.299072265625t-0.777587890625-0.63232421875t-0.880126953125-0.63232421875t-1.07666015625-0.299072265625t-1.085205078125,0.384521484375t-0.487060546875,1.016845703125q0,1.04248046875,0.73486328125,2.042236328125t1.614990234375,2.10205078125t1.614990234375,2.315673828125t0.73486328125,2.68310546875q0,0.63232421875-0.264892578125,1.068115234375t-0.70068359375,0.709228515625t-0.982666015625,0.418701171875t-1.0595703125,0.145263671875q-0.56396484375,0-1.31591796875-0.264892578125t-1.41845703125-0.70068359375t-1.119384765625-1.016845703125t-0.452880859375-1.21337890625q0-0.3076171875,0.435791015625-0.39306640625t0.640869140625-0.08544921875q0.1025390625,0,0.316162109375,0.068359375t0.418701171875,0.15380859375t0.367431640625,0.18798828125t0.128173828125,0.22216796875q0.1708984375,0.205078125,0.521240234375,0.606689453125t0.70068359375,0.6494140625t0.615234375,0.179443359375t0.264892578125-0.76904296875q0-1.3330078125-0.7177734375-2.452392578125t-1.563720703125-2.1875t-1.563720703125-2.119140625t-0.7177734375-2.247314453125z M126.22685546875,35.71533203125q0-1.572265625,0.367431640625-3.084716796875t0.623779296875-3.016357421875q0.068359375-0.39306640625,0.538330078125-0.487060546875t0.794677734375-0.093994140625q0.56396484375,0,0.90576171875,0.1708984375q0.13671875,0.068359375,0.25634765625,0.15380859375t0.11962890625,0.22216796875q0,1.4697265625-0.350341796875,2.87109375t-0.350341796875,2.9736328125q0,0.52978515625,0.076904296875,0.999755859375t0.145263671875,0.931396484375l0.1025390625,0.49560546875q0,0.13671875,0.01708984375,0.2392578125t0.05126953125,0.2392578125q0,0.3076171875-0.435791015625,0.418701171875t-0.760498046875,0.111083984375q-0.49560546875,0-0.914306640625-0.196533203125t-0.657958984375-0.675048828125l-0.2392578125-0.49560546875q-0.205078125-0.39306640625-0.205078125-0.880126953125t-0.08544921875-0.897216796875z M127.32060546875,25.42724609375l0-0.32470703125q0-0.80322265625,0.401611328125-1.435546875t1.204833984375-0.63232421875q0.1025390625,0,0.196533203125,0.01708984375t0.196533203125,0.01708984375q0.205078125,0.0341796875,0.538330078125,0.162353515625t0.333251953125,0.401611328125l0,0.0341796875q-0.068359375,0.13671875-0.08544921875,0.281982421875t-0.08544921875,0.247802734375l0.0341796875-0.0341796875q-0.205078125,0.52978515625-0.333251953125,0.8544921875t-0.281982421875,0.521240234375t-0.384521484375,0.281982421875t-0.657958984375,0.08544921875q-0.068359375,0-0.2392578125-0.01708984375t-0.367431640625-0.068359375t-0.333251953125-0.13671875t-0.13671875-0.25634765625z M132.98879394531,25.2734375q0-0.2392578125,0.5126953125-0.41015625t1.162109375-0.281982421875t1.256103515625-0.162353515625t0.828857421875-0.08544921875q0-0.46142578125,0.0341796875-0.931396484375t0.18798828125-0.83740234375t0.487060546875-0.589599609375t0.931396484375-0.22216796875q0.49560546875,0,0.751953125,0.11962890625t0.546875,0.49560546875q0.068359375,0.205078125,0.068359375,0.39306640625l0,0.572509765625t-0.0341796875,0.589599609375q0.63232421875-0.068359375,1.256103515625-0.162353515625t1.256103515625-0.093994140625q0.46142578125,0,0.63232421875,0.01708984375t0.341796875,0.41015625q0.13671875,0.39306640625-0.333251953125,0.59814453125t-1.1279296875,0.3076171875t-1.307373046875,0.15380859375t-0.7861328125,0.05126953125q-0.205078125,2.939453125-0.418701171875,5.82763671875t-0.213623046875,5.86181640625q0,1.3330078125,0.08544921875,2.75146484375t0.478515625,2.68310546875q0.1025390625,0.39306640625,0.341796875,0.73486328125t0.2392578125,0.73486328125q0,0.2392578125-0.18798828125,0.3759765625t-0.452880859375,0.230712890625t-0.52978515625,0.111083984375t-0.435791015625,0.01708984375q-1.07666015625,0-1.640625-0.80322265625t-0.811767578125-1.922607421875t-0.264892578125-2.298583984375t-0.01708984375-1.9140625q0-1.50390625,0.059814453125-3.076171875t0.145263671875-3.1103515625t0.2392578125-3.0078125t0.35888671875-2.734375q-0.59814453125,0.068359375-1.170654296875,0.15380859375t-1.170654296875,0.08544921875q-0.13671875,0-0.367431640625-0.01708984375t-0.435791015625-0.08544921875t-0.350341796875-0.18798828125t-0.145263671875-0.341796875z M146.05688476563,36.826171875q0-1.1962890625,0.264892578125-2.81982421875t0.897216796875-3.076171875t1.666259765625-2.469482421875t2.606201171875-1.016845703125q1.4697265625,0,2.20458984375,0.845947265625t0.73486328125,2.281494140625q0,0.93994140625-0.350341796875,2.059326171875t-0.999755859375,2.119140625t-1.5380859375,1.666259765625t-1.982421875,0.66650390625l-0.4443359375-0.0341796875q0,0.46142578125,0.13671875,1.239013671875t0.401611328125,1.546630859375t0.68359375,1.35009765625t1.016845703125,0.5810546875q0.87158203125,0,1.6748046875-0.70068359375t1.52099609375-1.55517578125t1.3330078125-1.55517578125t1.1279296875-0.70068359375q0.2734375,0,0.56396484375,0.08544921875t0.32470703125,0.478515625q0,0.2392578125-0.128173828125,0.39306640625t-0.230712890625,0.341796875q-0.52978515625,0.90576171875-1.153564453125,1.72607421875t-1.409912109375,1.48681640625t-1.717529296875,1.051025390625t-2.059326171875,0.384521484375q-1.4697265625,0-2.44384765625-0.521240234375t-1.572265625-1.4013671875t-0.863037109375-2.03369140625t-0.264892578125-2.418212890625z M149.11596679688,35.52734375l0.478515625,0.42724609375q0.341796875,0.3076171875,0.68359375,0.13671875t0.615234375-0.623779296875t0.504150390625-1.119384765625t0.41015625-1.3671875t0.264892578125-1.3671875t0.08544921875-1.11083984375l0-0.5810546875t-0.05126953125-0.615234375t-0.179443359375-0.487060546875t-0.401611328125-0.247802734375q-0.08544921875-0.01708984375-0.15380859375-0.01708984375q-0.5810546875,0-0.9912109375,0.73486328125q-0.4443359375,0.8203125-0.7177734375,1.990966796875t-0.39306640625,2.401123046875t-0.15380859375,1.845703125z M160.33835449219,31.71630859375q0-0.70068359375,0.41015625-1.204833984375t0.999755859375-0.8203125t1.290283203125-0.469970703125t1.298828125-0.15380859375q0.46142578125,0,1.23046875,0.13671875t1.50390625,0.41015625t1.273193359375,0.7177734375t0.538330078125,1.04248046875q0,0.2734375-0.205078125,0.487060546875t-0.42724609375,0.213623046875q-0.46142578125,0-0.83740234375-0.299072265625t-0.777587890625-0.63232421875t-0.880126953125-0.63232421875t-1.07666015625-0.299072265625t-1.085205078125,0.384521484375t-0.487060546875,1.016845703125q0,1.04248046875,0.73486328125,2.042236328125t1.614990234375,2.10205078125t1.614990234375,2.315673828125t0.73486328125,2.68310546875q0,0.63232421875-0.264892578125,1.068115234375t-0.70068359375,0.709228515625t-0.982666015625,0.418701171875t-1.0595703125,0.145263671875q-0.56396484375,0-1.31591796875-0.264892578125t-1.41845703125-0.70068359375t-1.119384765625-1.016845703125t-0.452880859375-1.21337890625q0-0.3076171875,0.435791015625-0.39306640625t0.640869140625-0.08544921875q0.1025390625,0,0.316162109375,0.068359375t0.418701171875,0.15380859375t0.367431640625,0.18798828125t0.128173828125,0.22216796875q0.1708984375,0.205078125,0.521240234375,0.606689453125t0.70068359375,0.6494140625t0.615234375,0.179443359375t0.264892578125-0.76904296875q0-1.3330078125-0.7177734375-2.452392578125t-1.563720703125-2.1875t-1.563720703125-2.119140625t-0.7177734375-2.247314453125z M179.08317871094,18.377685546875q-0.042724609375-0.521240234375,0.068359375-0.90576171875t0.4443359375-0.63232421875t1.068115234375-0.247802734375l2.75146484375,0q0.56396484375,0,1.478271484375,0.059814453125t1.96533203125,0.179443359375t2.093505859375,0.367431640625t1.905517578125,0.615234375t1.4013671875,0.90576171875t0.538330078125,1.273193359375q0,1.04248046875-0.606689453125,1.956787109375t-1.52099609375,1.649169921875t-1.93115234375,1.307373046875t-1.820068359375,1.033935546875q3.1787109375,0.70068359375,4.97314453125,2.9052734375t1.79443359375,5.5029296875q0,1.7431640625-0.66650390625,3.443603515625t-1.820068359375,3.067626953125t-2.734375,2.20458984375t-3.392333984375,0.83740234375q-0.2392578125,0-0.538330078125-0.05126953125t-0.546875-0.162353515625t-0.42724609375-0.316162109375t-0.179443359375-0.52978515625q0-1.50390625,1.62353515625-1.50390625q0.2734375,0,0.640869140625,0.076904296875t0.572509765625,0.316162109375q0.93994140625-0.39306640625,1.717529296875-1.24755859375t1.31591796875-1.905517578125t0.83740234375-2.20458984375t0.299072265625-2.093505859375q0-1.1279296875-0.333251953125-2.298583984375t-0.965576171875-2.17041015625t-1.55517578125-1.683349609375t-2.119140625-0.8544921875q-0.3076171875-0.0341796875-0.675048828125-0.05126953125l-0.73486328125-0.0341796875t-0.7177734375-0.1025390625t-0.606689453125-0.2734375q0.13671875,2.8369140625,0.350341796875,5.65673828125t0.572509765625,5.65673828125q0.13671875,0.13671875,0.18798828125,0.401611328125t0.08544921875,0.56396484375t0.0341796875,0.572509765625l0,0.46142578125q0,0.3076171875-0.205078125,0.504150390625t-0.487060546875,0.316162109375t-0.59814453125,0.15380859375t-0.555419921875,0.0341796875q-0.76904296875,0-1.17919921875-0.205078125t-0.5810546875-0.59814453125t-0.22216796875-0.897216796875t-0.08544921875-1.102294921875q-0.46142578125-4.76806640625-0.66650390625-9.43359375t-0.205078125-9.43359375q0-0.56396484375-0.042724609375-1.085205078125z M182.23625488281,17.6513671875q0,2.10205078125,0.13671875,4.212646484375t0.2392578125,4.212646484375q0.76904296875-0.46142578125,2.0166015625-1.085205078125t2.418212890625-1.375732421875t2.008056640625-1.65771484375t0.83740234375-1.96533203125q0-0.83740234375-0.9912109375-1.273193359375t-2.30712890625-0.6494140625t-2.572021484375-0.264892578125t-1.785888671875-0.15380859375z M197.16713867188,32.314453125q0-0.49560546875,0.281982421875-0.6494140625t0.709228515625-0.15380859375q0.70068359375,0,1.068115234375,0.264892578125t0.367431640625,0.931396484375q0,0.80322265625,0.11962890625,2.008056640625t0.350341796875,2.34130859375t0.546875,1.956787109375t0.657958984375,0.8203125q0.63232421875,0,1.119384765625-0.97412109375t0.8544921875-2.392578125t0.63232421875-3.050537109375t0.367431640625-2.913818359375q0.068359375-0.70068359375,0.333251953125-1.016845703125t0.965576171875-0.316162109375q0.80322265625,0,1.170654296875,0.66650390625t0.469970703125,1.640625q0.08544921875,0.83740234375,0.08544921875,1.7431640625l0,0.29052734375l0,0.68359375q0,0.6494140625,0.01708984375,1.162109375l0.49560546875,10.47607421875l0.068359375,1.7431640625q0.0341796875,0.2392578125,0.05126953125,0.452880859375t0.01708984375,0.452880859375q0,0.97412109375-0.418701171875,1.256103515625t-1.358642578125,0.281982421875q-0.205078125,0-0.521240234375-0.0341796875t-0.615234375-0.13671875t-0.5126953125-0.281982421875t-0.213623046875-0.452880859375l0.068359375-0.1708984375q0.08544921875-1.025390625,0.08544921875-2.1533203125l0-0.35888671875q-0.01708984375-1.3330078125-0.08544921875-2.7001953125t-0.15380859375-2.734375t-0.08544921875-2.6318359375q-0.2392578125,0.52978515625-0.555419921875,1.09375t-0.73486328125,1.016845703125t-0.948486328125,0.751953125t-1.1962890625,0.299072265625q-0.97412109375,0-1.6064453125-0.5126953125t-0.982666015625-1.3330078125t-0.504150390625-1.837158203125t-0.205078125-2.03369140625t-0.068359375-1.939697265625t-0.13671875-1.55517578125z M218.073828125,37.919921875q0-0.76904296875,0.076904296875-1.837158203125t0.350341796875-1.768798828125q0.1025390625-0.2392578125,0.435791015625-0.469970703125t0.70068359375-0.281982421875t0.6494140625,0.08544921875t0.281982421875,0.59814453125q0,0.80322265625-0.0341796875,2.03369140625l0,0.52978515625q0,0.93994140625,0.08544921875,1.79443359375q0.11962890625,1.1279296875,0.5126953125,1.89697265625q0.341796875,0.70068359375,1.07666015625,0.70068359375l0.13671875,0q1.00830078125-0.068359375,1.48681640625-0.83740234375t0.6494140625-1.82861328125q0.15380859375-0.97412109375,0.15380859375-2.05078125l0-0.205078125q-0.01708984375-1.1962890625-0.01708984375-2.10205078125q0-3.60595703125-0.2392578125-7.22900390625t-0.2392578125-7.26318359375q0-0.59814453125-0.05126953125-1.298828125q-0.01708984375-0.25634765625-0.01708984375-0.5126953125q0-0.41015625,0.05126953125-0.7861328125q0.08544921875-0.59814453125,0.435791015625-0.999755859375t1.187744140625-0.401611328125q0.46142578125,0,0.845947265625,0.111083984375t0.692138671875,0.452880859375q0.39306640625,4.443359375,0.6494140625,9.031982421875t0.25634765625,9.066162109375q0,1.5380859375-0.25634765625,3.09326171875t-0.93994140625,2.802734375t-1.89697265625,2.03369140625t-3.09326171875,0.7861328125q-1.1279296875,0-1.8798828125-0.401611328125t-1.204833984375-1.102294921875t-0.6494140625-1.632080078125t-0.196533203125-2.008056640625z M230.64631347656,18.18115234375q0-0.2392578125,0.333251953125-0.367431640625t0.435791015625-0.128173828125l0.63232421875-0.1025390625q0.63232421875-0.1025390625,1.28173828125-0.179443359375t1.2646484375-0.145263671875q2.17041015625-0.2734375,4.3408203125-0.538330078125t4.375-0.264892578125q0.1708984375,0,0.469970703125,0.01708984375t0.59814453125,0.093994140625t0.5126953125,0.213623046875t0.213623046875,0.3759765625q0,0.1708984375-0.162353515625,0.299072265625t-0.384521484375,0.196533203125t-0.452880859375,0.08544921875t-0.367431640625,0.01708984375l-0.299072265625,0t-0.299072265625-0.068359375q-0.90576171875,0-1.785888671875,0.08544921875t-1.785888671875,0.15380859375q0.2392578125,0.2734375,0.25634765625,0.76904296875t0.0341796875,0.8544921875q0,6.0498046875,0.08544921875,12.03125t0.15380859375,12.08251953125l0,0.0341796875q-0.56396484375,0.49560546875-0.965576171875,0.63232421875t-0.811767578125,0.13671875q-0.39306640625,0-0.794677734375-0.145263671875t-0.965576171875-0.623779296875l0-0.0341796875l0.13671875-13.41552734375q0-1.3330078125-0.0341796875-2.939453125t-0.0341796875-3.255615234375t0.05126953125-3.187255859375t0.2734375-2.68310546875q-1.00830078125,0.1025390625-2.13623046875,0.3076171875q-0.97412109375,0.1708984375-1.86279296875,0.1708984375l-0.3076171875,0q-0.068359375,0-0.401611328125,0.01708984375t-0.68359375-0.01708984375t-0.63232421875-0.13671875t-0.281982421875-0.341796875z"/><path fill="#" d=""/></svg>
